<mxfile host="app.diagrams.net" agent="Mozilla/5.0 (Windows NT 10.0; Win64; x64) AppleWebKit/537.36 (KHTML, like Gecko) Chrome/133.0.0.0 Safari/537.36 Edg/133.0.0.0" version="26.1.1">
  <diagram name="Page-1" id="9yvNEwdizCx69Er2hn3D">
    <mxGraphModel dx="1301" dy="716" grid="1" gridSize="10" guides="1" tooltips="1" connect="1" arrows="1" fold="1" page="1" pageScale="1" pageWidth="850" pageHeight="1100" math="0" shadow="0">
      <root>
        <mxCell id="0" />
        <mxCell id="1" parent="0" />
        <mxCell id="-f8f2UsQWGdHz2A_yQ2c-11" value="br.com.fiap.beans" style="swimlane;whiteSpace=wrap;html=1;" parent="1" vertex="1">
          <mxGeometry x="40" y="40" width="660" height="720" as="geometry" />
        </mxCell>
        <mxCell id="-f8f2UsQWGdHz2A_yQ2c-1" value="Cliente" style="swimlane;fontStyle=0;childLayout=stackLayout;horizontal=1;startSize=25;horizontalStack=0;resizeParent=1;resizeParentMax=0;resizeLast=0;collapsible=1;marginBottom=0;whiteSpace=wrap;html=1;" parent="-f8f2UsQWGdHz2A_yQ2c-11" vertex="1">
          <mxGeometry x="20" y="40" width="200" height="483" as="geometry">
            <mxRectangle x="120" y="160" width="80" height="30" as="alternateBounds" />
          </mxGeometry>
        </mxCell>
        <mxCell id="-f8f2UsQWGdHz2A_yQ2c-2" value="- idade: int" style="text;strokeColor=none;fillColor=none;align=left;verticalAlign=middle;spacingLeft=4;spacingRight=4;overflow=hidden;points=[[0,0.5],[1,0.5]];portConstraint=eastwest;rotatable=0;whiteSpace=wrap;html=1;fontSize=12;spacing=2;" parent="-f8f2UsQWGdHz2A_yQ2c-1" vertex="1">
          <mxGeometry y="25" width="200" height="30" as="geometry" />
        </mxCell>
        <mxCell id="-f8f2UsQWGdHz2A_yQ2c-3" value="- nome: String" style="text;strokeColor=none;fillColor=none;align=left;verticalAlign=middle;spacingLeft=4;spacingRight=4;overflow=hidden;points=[[0,0.5],[1,0.5]];portConstraint=eastwest;rotatable=0;whiteSpace=wrap;html=1;" parent="-f8f2UsQWGdHz2A_yQ2c-1" vertex="1">
          <mxGeometry y="55" width="200" height="30" as="geometry" />
        </mxCell>
        <mxCell id="-f8f2UsQWGdHz2A_yQ2c-4" value="- email: String" style="text;strokeColor=none;fillColor=none;align=left;verticalAlign=middle;spacingLeft=4;spacingRight=4;overflow=hidden;points=[[0,0.5],[1,0.5]];portConstraint=eastwest;rotatable=0;whiteSpace=wrap;html=1;" parent="-f8f2UsQWGdHz2A_yQ2c-1" vertex="1">
          <mxGeometry y="85" width="200" height="30" as="geometry" />
        </mxCell>
        <mxCell id="-f8f2UsQWGdHz2A_yQ2c-5" value="- renda: double" style="text;strokeColor=none;fillColor=none;align=left;verticalAlign=middle;spacingLeft=4;spacingRight=4;overflow=hidden;points=[[0,0.5],[1,0.5]];portConstraint=eastwest;rotatable=0;whiteSpace=wrap;html=1;" parent="-f8f2UsQWGdHz2A_yQ2c-1" vertex="1">
          <mxGeometry y="115" width="200" height="30" as="geometry" />
        </mxCell>
        <mxCell id="Xk69e0sRLdtN3S3zNl_H-40" value="- endereco: Endereco" style="text;strokeColor=none;fillColor=none;align=left;verticalAlign=middle;spacingLeft=4;spacingRight=4;overflow=hidden;points=[[0,0.5],[1,0.5]];portConstraint=eastwest;rotatable=0;whiteSpace=wrap;html=1;" vertex="1" parent="-f8f2UsQWGdHz2A_yQ2c-1">
          <mxGeometry y="145" width="200" height="30" as="geometry" />
        </mxCell>
        <mxCell id="-f8f2UsQWGdHz2A_yQ2c-48" value="" style="line;strokeWidth=1;fillColor=none;align=left;verticalAlign=middle;spacingTop=-1;spacingLeft=3;spacingRight=3;rotatable=0;labelPosition=right;points=[];portConstraint=eastwest;strokeColor=inherit;" parent="-f8f2UsQWGdHz2A_yQ2c-1" vertex="1">
          <mxGeometry y="175" width="200" height="8" as="geometry" />
        </mxCell>
        <mxCell id="-f8f2UsQWGdHz2A_yQ2c-49" value="+ setIdade(idade: int): void" style="text;strokeColor=none;fillColor=none;align=left;verticalAlign=middle;spacingLeft=4;spacingRight=4;overflow=hidden;points=[[0,0.5],[1,0.5]];portConstraint=eastwest;rotatable=0;whiteSpace=wrap;html=1;" parent="-f8f2UsQWGdHz2A_yQ2c-1" vertex="1">
          <mxGeometry y="183" width="200" height="30" as="geometry" />
        </mxCell>
        <mxCell id="-f8f2UsQWGdHz2A_yQ2c-53" value="+ getIdade(): int" style="text;strokeColor=none;fillColor=none;align=left;verticalAlign=middle;spacingLeft=4;spacingRight=4;overflow=hidden;points=[[0,0.5],[1,0.5]];portConstraint=eastwest;rotatable=0;whiteSpace=wrap;html=1;" parent="-f8f2UsQWGdHz2A_yQ2c-1" vertex="1">
          <mxGeometry y="213" width="200" height="30" as="geometry" />
        </mxCell>
        <mxCell id="-f8f2UsQWGdHz2A_yQ2c-64" value="+ setNome(nome: String): void" style="text;strokeColor=none;fillColor=none;align=left;verticalAlign=middle;spacingLeft=4;spacingRight=4;overflow=hidden;points=[[0,0.5],[1,0.5]];portConstraint=eastwest;rotatable=0;whiteSpace=wrap;html=1;" parent="-f8f2UsQWGdHz2A_yQ2c-1" vertex="1">
          <mxGeometry y="243" width="200" height="30" as="geometry" />
        </mxCell>
        <mxCell id="-f8f2UsQWGdHz2A_yQ2c-65" value="+ getNome(): String" style="text;strokeColor=none;fillColor=none;align=left;verticalAlign=middle;spacingLeft=4;spacingRight=4;overflow=hidden;points=[[0,0.5],[1,0.5]];portConstraint=eastwest;rotatable=0;whiteSpace=wrap;html=1;" parent="-f8f2UsQWGdHz2A_yQ2c-1" vertex="1">
          <mxGeometry y="273" width="200" height="30" as="geometry" />
        </mxCell>
        <mxCell id="-f8f2UsQWGdHz2A_yQ2c-62" value="+ setEmail(email: String): void" style="text;strokeColor=none;fillColor=none;align=left;verticalAlign=middle;spacingLeft=4;spacingRight=4;overflow=hidden;points=[[0,0.5],[1,0.5]];portConstraint=eastwest;rotatable=0;whiteSpace=wrap;html=1;" parent="-f8f2UsQWGdHz2A_yQ2c-1" vertex="1">
          <mxGeometry y="303" width="200" height="30" as="geometry" />
        </mxCell>
        <mxCell id="-f8f2UsQWGdHz2A_yQ2c-63" value="+ getEmail(): String" style="text;strokeColor=none;fillColor=none;align=left;verticalAlign=middle;spacingLeft=4;spacingRight=4;overflow=hidden;points=[[0,0.5],[1,0.5]];portConstraint=eastwest;rotatable=0;whiteSpace=wrap;html=1;" parent="-f8f2UsQWGdHz2A_yQ2c-1" vertex="1">
          <mxGeometry y="333" width="200" height="30" as="geometry" />
        </mxCell>
        <mxCell id="-f8f2UsQWGdHz2A_yQ2c-66" value="+ setRenda(renda: double): void" style="text;strokeColor=none;fillColor=none;align=left;verticalAlign=middle;spacingLeft=4;spacingRight=4;overflow=hidden;points=[[0,0.5],[1,0.5]];portConstraint=eastwest;rotatable=0;whiteSpace=wrap;html=1;" parent="-f8f2UsQWGdHz2A_yQ2c-1" vertex="1">
          <mxGeometry y="363" width="200" height="30" as="geometry" />
        </mxCell>
        <mxCell id="-f8f2UsQWGdHz2A_yQ2c-67" value="+ getRenda(): double" style="text;strokeColor=none;fillColor=none;align=left;verticalAlign=middle;spacingLeft=4;spacingRight=4;overflow=hidden;points=[[0,0.5],[1,0.5]];portConstraint=eastwest;rotatable=0;whiteSpace=wrap;html=1;" parent="-f8f2UsQWGdHz2A_yQ2c-1" vertex="1">
          <mxGeometry y="393" width="200" height="30" as="geometry" />
        </mxCell>
        <mxCell id="Xk69e0sRLdtN3S3zNl_H-41" value="+ setEndereco&lt;span style=&quot;background-color: transparent; color: light-dark(rgb(0, 0, 0), rgb(255, 255, 255));&quot;&gt;(endereco: Endereco): void&lt;/span&gt;" style="text;strokeColor=none;fillColor=none;align=left;verticalAlign=middle;spacingLeft=4;spacingRight=4;overflow=hidden;points=[[0,0.5],[1,0.5]];portConstraint=eastwest;rotatable=0;whiteSpace=wrap;html=1;" vertex="1" parent="-f8f2UsQWGdHz2A_yQ2c-1">
          <mxGeometry y="423" width="200" height="30" as="geometry" />
        </mxCell>
        <mxCell id="Xk69e0sRLdtN3S3zNl_H-42" value="+ getEndereco(objectEndereco): Endereco" style="text;strokeColor=none;fillColor=none;align=left;verticalAlign=middle;spacingLeft=4;spacingRight=4;overflow=hidden;points=[[0,0.5],[1,0.5]];portConstraint=eastwest;rotatable=0;whiteSpace=wrap;html=1;" vertex="1" parent="-f8f2UsQWGdHz2A_yQ2c-1">
          <mxGeometry y="453" width="200" height="30" as="geometry" />
        </mxCell>
        <mxCell id="-f8f2UsQWGdHz2A_yQ2c-70" value="Produto" style="swimlane;fontStyle=0;childLayout=stackLayout;horizontal=1;startSize=25;horizontalStack=0;resizeParent=1;resizeParentMax=0;resizeLast=0;collapsible=1;marginBottom=0;whiteSpace=wrap;html=1;" parent="-f8f2UsQWGdHz2A_yQ2c-11" vertex="1">
          <mxGeometry x="230" y="40" width="200" height="393" as="geometry">
            <mxRectangle x="120" y="160" width="80" height="30" as="alternateBounds" />
          </mxGeometry>
        </mxCell>
        <mxCell id="-f8f2UsQWGdHz2A_yQ2c-71" value="- codigo: int" style="text;strokeColor=none;fillColor=none;align=left;verticalAlign=middle;spacingLeft=4;spacingRight=4;overflow=hidden;points=[[0,0.5],[1,0.5]];portConstraint=eastwest;rotatable=0;whiteSpace=wrap;html=1;fontSize=12;spacing=2;" parent="-f8f2UsQWGdHz2A_yQ2c-70" vertex="1">
          <mxGeometry y="25" width="200" height="30" as="geometry" />
        </mxCell>
        <mxCell id="-f8f2UsQWGdHz2A_yQ2c-72" value="- tipo: String" style="text;strokeColor=none;fillColor=none;align=left;verticalAlign=middle;spacingLeft=4;spacingRight=4;overflow=hidden;points=[[0,0.5],[1,0.5]];portConstraint=eastwest;rotatable=0;whiteSpace=wrap;html=1;" parent="-f8f2UsQWGdHz2A_yQ2c-70" vertex="1">
          <mxGeometry y="55" width="200" height="30" as="geometry" />
        </mxCell>
        <mxCell id="-f8f2UsQWGdHz2A_yQ2c-73" value="- marca: String" style="text;strokeColor=none;fillColor=none;align=left;verticalAlign=middle;spacingLeft=4;spacingRight=4;overflow=hidden;points=[[0,0.5],[1,0.5]];portConstraint=eastwest;rotatable=0;whiteSpace=wrap;html=1;" parent="-f8f2UsQWGdHz2A_yQ2c-70" vertex="1">
          <mxGeometry y="85" width="200" height="30" as="geometry" />
        </mxCell>
        <mxCell id="-f8f2UsQWGdHz2A_yQ2c-74" value="- valor: double" style="text;strokeColor=none;fillColor=none;align=left;verticalAlign=middle;spacingLeft=4;spacingRight=4;overflow=hidden;points=[[0,0.5],[1,0.5]];portConstraint=eastwest;rotatable=0;whiteSpace=wrap;html=1;" parent="-f8f2UsQWGdHz2A_yQ2c-70" vertex="1">
          <mxGeometry y="115" width="200" height="30" as="geometry" />
        </mxCell>
        <mxCell id="-f8f2UsQWGdHz2A_yQ2c-75" value="" style="line;strokeWidth=1;fillColor=none;align=left;verticalAlign=middle;spacingTop=-1;spacingLeft=3;spacingRight=3;rotatable=0;labelPosition=right;points=[];portConstraint=eastwest;strokeColor=inherit;" parent="-f8f2UsQWGdHz2A_yQ2c-70" vertex="1">
          <mxGeometry y="145" width="200" height="8" as="geometry" />
        </mxCell>
        <mxCell id="-f8f2UsQWGdHz2A_yQ2c-76" value="+ setCodigo(codigo: int): void" style="text;strokeColor=none;fillColor=none;align=left;verticalAlign=middle;spacingLeft=4;spacingRight=4;overflow=hidden;points=[[0,0.5],[1,0.5]];portConstraint=eastwest;rotatable=0;whiteSpace=wrap;html=1;" parent="-f8f2UsQWGdHz2A_yQ2c-70" vertex="1">
          <mxGeometry y="153" width="200" height="30" as="geometry" />
        </mxCell>
        <mxCell id="-f8f2UsQWGdHz2A_yQ2c-77" value="+ getCodigo(): int" style="text;strokeColor=none;fillColor=none;align=left;verticalAlign=middle;spacingLeft=4;spacingRight=4;overflow=hidden;points=[[0,0.5],[1,0.5]];portConstraint=eastwest;rotatable=0;whiteSpace=wrap;html=1;" parent="-f8f2UsQWGdHz2A_yQ2c-70" vertex="1">
          <mxGeometry y="183" width="200" height="30" as="geometry" />
        </mxCell>
        <mxCell id="-f8f2UsQWGdHz2A_yQ2c-78" value="+ settTipo(tipo: String): void" style="text;strokeColor=none;fillColor=none;align=left;verticalAlign=middle;spacingLeft=4;spacingRight=4;overflow=hidden;points=[[0,0.5],[1,0.5]];portConstraint=eastwest;rotatable=0;whiteSpace=wrap;html=1;" parent="-f8f2UsQWGdHz2A_yQ2c-70" vertex="1">
          <mxGeometry y="213" width="200" height="30" as="geometry" />
        </mxCell>
        <mxCell id="-f8f2UsQWGdHz2A_yQ2c-79" value="+ getTipo(): String" style="text;strokeColor=none;fillColor=none;align=left;verticalAlign=middle;spacingLeft=4;spacingRight=4;overflow=hidden;points=[[0,0.5],[1,0.5]];portConstraint=eastwest;rotatable=0;whiteSpace=wrap;html=1;" parent="-f8f2UsQWGdHz2A_yQ2c-70" vertex="1">
          <mxGeometry y="243" width="200" height="30" as="geometry" />
        </mxCell>
        <mxCell id="-f8f2UsQWGdHz2A_yQ2c-80" value="+ setMarca(marca: String): void" style="text;strokeColor=none;fillColor=none;align=left;verticalAlign=middle;spacingLeft=4;spacingRight=4;overflow=hidden;points=[[0,0.5],[1,0.5]];portConstraint=eastwest;rotatable=0;whiteSpace=wrap;html=1;" parent="-f8f2UsQWGdHz2A_yQ2c-70" vertex="1">
          <mxGeometry y="273" width="200" height="30" as="geometry" />
        </mxCell>
        <mxCell id="-f8f2UsQWGdHz2A_yQ2c-81" value="+ getMarca(): String" style="text;strokeColor=none;fillColor=none;align=left;verticalAlign=middle;spacingLeft=4;spacingRight=4;overflow=hidden;points=[[0,0.5],[1,0.5]];portConstraint=eastwest;rotatable=0;whiteSpace=wrap;html=1;" parent="-f8f2UsQWGdHz2A_yQ2c-70" vertex="1">
          <mxGeometry y="303" width="200" height="30" as="geometry" />
        </mxCell>
        <mxCell id="-f8f2UsQWGdHz2A_yQ2c-82" value="+ setValor(valor: double): void" style="text;strokeColor=none;fillColor=none;align=left;verticalAlign=middle;spacingLeft=4;spacingRight=4;overflow=hidden;points=[[0,0.5],[1,0.5]];portConstraint=eastwest;rotatable=0;whiteSpace=wrap;html=1;" parent="-f8f2UsQWGdHz2A_yQ2c-70" vertex="1">
          <mxGeometry y="333" width="200" height="30" as="geometry" />
        </mxCell>
        <mxCell id="-f8f2UsQWGdHz2A_yQ2c-83" value="+ getValor(): double" style="text;strokeColor=none;fillColor=none;align=left;verticalAlign=middle;spacingLeft=4;spacingRight=4;overflow=hidden;points=[[0,0.5],[1,0.5]];portConstraint=eastwest;rotatable=0;whiteSpace=wrap;html=1;" parent="-f8f2UsQWGdHz2A_yQ2c-70" vertex="1">
          <mxGeometry y="363" width="200" height="30" as="geometry" />
        </mxCell>
        <mxCell id="Xk69e0sRLdtN3S3zNl_H-39" style="edgeStyle=orthogonalEdgeStyle;rounded=0;orthogonalLoop=1;jettySize=auto;html=1;endArrow=none;startFill=0;" edge="1" parent="-f8f2UsQWGdHz2A_yQ2c-11" source="Xk69e0sRLdtN3S3zNl_H-1" target="-f8f2UsQWGdHz2A_yQ2c-1">
          <mxGeometry relative="1" as="geometry">
            <Array as="points">
              <mxPoint x="120" y="520" />
            </Array>
          </mxGeometry>
        </mxCell>
        <mxCell id="Xk69e0sRLdtN3S3zNl_H-1" value="Endereco" style="swimlane;fontStyle=0;childLayout=stackLayout;horizontal=1;startSize=25;horizontalStack=0;resizeParent=1;resizeParentMax=0;resizeLast=0;collapsible=1;marginBottom=0;whiteSpace=wrap;html=1;" vertex="1" parent="-f8f2UsQWGdHz2A_yQ2c-11">
          <mxGeometry x="440" y="40" width="200" height="663" as="geometry">
            <mxRectangle x="120" y="160" width="80" height="30" as="alternateBounds" />
          </mxGeometry>
        </mxCell>
        <mxCell id="Xk69e0sRLdtN3S3zNl_H-2" value="- logradouro: String" style="text;strokeColor=none;fillColor=none;align=left;verticalAlign=middle;spacingLeft=4;spacingRight=4;overflow=hidden;points=[[0,0.5],[1,0.5]];portConstraint=eastwest;rotatable=0;whiteSpace=wrap;html=1;fontSize=12;spacing=2;" vertex="1" parent="Xk69e0sRLdtN3S3zNl_H-1">
          <mxGeometry y="25" width="200" height="30" as="geometry" />
        </mxCell>
        <mxCell id="Xk69e0sRLdtN3S3zNl_H-3" value="- numero: String" style="text;strokeColor=none;fillColor=none;align=left;verticalAlign=middle;spacingLeft=4;spacingRight=4;overflow=hidden;points=[[0,0.5],[1,0.5]];portConstraint=eastwest;rotatable=0;whiteSpace=wrap;html=1;" vertex="1" parent="Xk69e0sRLdtN3S3zNl_H-1">
          <mxGeometry y="55" width="200" height="30" as="geometry" />
        </mxCell>
        <mxCell id="Xk69e0sRLdtN3S3zNl_H-4" value="- complemento: String" style="text;strokeColor=none;fillColor=none;align=left;verticalAlign=middle;spacingLeft=4;spacingRight=4;overflow=hidden;points=[[0,0.5],[1,0.5]];portConstraint=eastwest;rotatable=0;whiteSpace=wrap;html=1;" vertex="1" parent="Xk69e0sRLdtN3S3zNl_H-1">
          <mxGeometry y="85" width="200" height="30" as="geometry" />
        </mxCell>
        <mxCell id="Xk69e0sRLdtN3S3zNl_H-5" value="- bairro: String" style="text;strokeColor=none;fillColor=none;align=left;verticalAlign=middle;spacingLeft=4;spacingRight=4;overflow=hidden;points=[[0,0.5],[1,0.5]];portConstraint=eastwest;rotatable=0;whiteSpace=wrap;html=1;" vertex="1" parent="Xk69e0sRLdtN3S3zNl_H-1">
          <mxGeometry y="115" width="200" height="30" as="geometry" />
        </mxCell>
        <mxCell id="Xk69e0sRLdtN3S3zNl_H-16" value="- uf: String" style="text;strokeColor=none;fillColor=none;align=left;verticalAlign=middle;spacingLeft=4;spacingRight=4;overflow=hidden;points=[[0,0.5],[1,0.5]];portConstraint=eastwest;rotatable=0;whiteSpace=wrap;html=1;" vertex="1" parent="Xk69e0sRLdtN3S3zNl_H-1">
          <mxGeometry y="145" width="200" height="30" as="geometry" />
        </mxCell>
        <mxCell id="Xk69e0sRLdtN3S3zNl_H-17" value="- cidade: String" style="text;strokeColor=none;fillColor=none;align=left;verticalAlign=middle;spacingLeft=4;spacingRight=4;overflow=hidden;points=[[0,0.5],[1,0.5]];portConstraint=eastwest;rotatable=0;whiteSpace=wrap;html=1;" vertex="1" parent="Xk69e0sRLdtN3S3zNl_H-1">
          <mxGeometry y="175" width="200" height="30" as="geometry" />
        </mxCell>
        <mxCell id="Xk69e0sRLdtN3S3zNl_H-18" value="- cep: String" style="text;strokeColor=none;fillColor=none;align=left;verticalAlign=middle;spacingLeft=4;spacingRight=4;overflow=hidden;points=[[0,0.5],[1,0.5]];portConstraint=eastwest;rotatable=0;whiteSpace=wrap;html=1;" vertex="1" parent="Xk69e0sRLdtN3S3zNl_H-1">
          <mxGeometry y="205" width="200" height="30" as="geometry" />
        </mxCell>
        <mxCell id="Xk69e0sRLdtN3S3zNl_H-6" value="" style="line;strokeWidth=1;fillColor=none;align=left;verticalAlign=middle;spacingTop=-1;spacingLeft=3;spacingRight=3;rotatable=0;labelPosition=right;points=[];portConstraint=eastwest;strokeColor=inherit;" vertex="1" parent="Xk69e0sRLdtN3S3zNl_H-1">
          <mxGeometry y="235" width="200" height="8" as="geometry" />
        </mxCell>
        <mxCell id="Xk69e0sRLdtN3S3zNl_H-9" value="+ setLogradouro(logradouro: String): void" style="text;strokeColor=none;fillColor=none;align=left;verticalAlign=middle;spacingLeft=4;spacingRight=4;overflow=hidden;points=[[0,0.5],[1,0.5]];portConstraint=eastwest;rotatable=0;whiteSpace=wrap;html=1;" vertex="1" parent="Xk69e0sRLdtN3S3zNl_H-1">
          <mxGeometry y="243" width="200" height="30" as="geometry" />
        </mxCell>
        <mxCell id="Xk69e0sRLdtN3S3zNl_H-10" value="+ getLogradouro(): String" style="text;strokeColor=none;fillColor=none;align=left;verticalAlign=middle;spacingLeft=4;spacingRight=4;overflow=hidden;points=[[0,0.5],[1,0.5]];portConstraint=eastwest;rotatable=0;whiteSpace=wrap;html=1;" vertex="1" parent="Xk69e0sRLdtN3S3zNl_H-1">
          <mxGeometry y="273" width="200" height="30" as="geometry" />
        </mxCell>
        <mxCell id="Xk69e0sRLdtN3S3zNl_H-11" value="+ setNumero(numero: String): void" style="text;strokeColor=none;fillColor=none;align=left;verticalAlign=middle;spacingLeft=4;spacingRight=4;overflow=hidden;points=[[0,0.5],[1,0.5]];portConstraint=eastwest;rotatable=0;whiteSpace=wrap;html=1;" vertex="1" parent="Xk69e0sRLdtN3S3zNl_H-1">
          <mxGeometry y="303" width="200" height="30" as="geometry" />
        </mxCell>
        <mxCell id="Xk69e0sRLdtN3S3zNl_H-12" value="+ getNumero(): String" style="text;strokeColor=none;fillColor=none;align=left;verticalAlign=middle;spacingLeft=4;spacingRight=4;overflow=hidden;points=[[0,0.5],[1,0.5]];portConstraint=eastwest;rotatable=0;whiteSpace=wrap;html=1;" vertex="1" parent="Xk69e0sRLdtN3S3zNl_H-1">
          <mxGeometry y="333" width="200" height="30" as="geometry" />
        </mxCell>
        <mxCell id="Xk69e0sRLdtN3S3zNl_H-27" value="+ setComplemento(complemento: String): void" style="text;strokeColor=none;fillColor=none;align=left;verticalAlign=middle;spacingLeft=4;spacingRight=4;overflow=hidden;points=[[0,0.5],[1,0.5]];portConstraint=eastwest;rotatable=0;whiteSpace=wrap;html=1;" vertex="1" parent="Xk69e0sRLdtN3S3zNl_H-1">
          <mxGeometry y="363" width="200" height="30" as="geometry" />
        </mxCell>
        <mxCell id="Xk69e0sRLdtN3S3zNl_H-28" value="+ getComplemento(): String" style="text;strokeColor=none;fillColor=none;align=left;verticalAlign=middle;spacingLeft=4;spacingRight=4;overflow=hidden;points=[[0,0.5],[1,0.5]];portConstraint=eastwest;rotatable=0;whiteSpace=wrap;html=1;" vertex="1" parent="Xk69e0sRLdtN3S3zNl_H-1">
          <mxGeometry y="393" width="200" height="30" as="geometry" />
        </mxCell>
        <mxCell id="Xk69e0sRLdtN3S3zNl_H-29" value="+ setBairro(bairro: String): void" style="text;strokeColor=none;fillColor=none;align=left;verticalAlign=middle;spacingLeft=4;spacingRight=4;overflow=hidden;points=[[0,0.5],[1,0.5]];portConstraint=eastwest;rotatable=0;whiteSpace=wrap;html=1;" vertex="1" parent="Xk69e0sRLdtN3S3zNl_H-1">
          <mxGeometry y="423" width="200" height="30" as="geometry" />
        </mxCell>
        <mxCell id="Xk69e0sRLdtN3S3zNl_H-30" value="+ getBairro&lt;span style=&quot;background-color: transparent; color: light-dark(rgb(0, 0, 0), rgb(255, 255, 255));&quot;&gt;(): String&lt;/span&gt;" style="text;strokeColor=none;fillColor=none;align=left;verticalAlign=middle;spacingLeft=4;spacingRight=4;overflow=hidden;points=[[0,0.5],[1,0.5]];portConstraint=eastwest;rotatable=0;whiteSpace=wrap;html=1;" vertex="1" parent="Xk69e0sRLdtN3S3zNl_H-1">
          <mxGeometry y="453" width="200" height="30" as="geometry" />
        </mxCell>
        <mxCell id="Xk69e0sRLdtN3S3zNl_H-31" value="+ setUf(uf: String): void" style="text;strokeColor=none;fillColor=none;align=left;verticalAlign=middle;spacingLeft=4;spacingRight=4;overflow=hidden;points=[[0,0.5],[1,0.5]];portConstraint=eastwest;rotatable=0;whiteSpace=wrap;html=1;" vertex="1" parent="Xk69e0sRLdtN3S3zNl_H-1">
          <mxGeometry y="483" width="200" height="30" as="geometry" />
        </mxCell>
        <mxCell id="Xk69e0sRLdtN3S3zNl_H-32" value="+ getUf(): String" style="text;strokeColor=none;fillColor=none;align=left;verticalAlign=middle;spacingLeft=4;spacingRight=4;overflow=hidden;points=[[0,0.5],[1,0.5]];portConstraint=eastwest;rotatable=0;whiteSpace=wrap;html=1;" vertex="1" parent="Xk69e0sRLdtN3S3zNl_H-1">
          <mxGeometry y="513" width="200" height="30" as="geometry" />
        </mxCell>
        <mxCell id="Xk69e0sRLdtN3S3zNl_H-33" value="+ se&lt;span style=&quot;background-color: transparent; color: light-dark(rgb(0, 0, 0), rgb(255, 255, 255));&quot;&gt;tCidade(cidade: String): void&lt;/span&gt;" style="text;strokeColor=none;fillColor=none;align=left;verticalAlign=middle;spacingLeft=4;spacingRight=4;overflow=hidden;points=[[0,0.5],[1,0.5]];portConstraint=eastwest;rotatable=0;whiteSpace=wrap;html=1;" vertex="1" parent="Xk69e0sRLdtN3S3zNl_H-1">
          <mxGeometry y="543" width="200" height="30" as="geometry" />
        </mxCell>
        <mxCell id="Xk69e0sRLdtN3S3zNl_H-34" value="+ getCidade(): String" style="text;strokeColor=none;fillColor=none;align=left;verticalAlign=middle;spacingLeft=4;spacingRight=4;overflow=hidden;points=[[0,0.5],[1,0.5]];portConstraint=eastwest;rotatable=0;whiteSpace=wrap;html=1;" vertex="1" parent="Xk69e0sRLdtN3S3zNl_H-1">
          <mxGeometry y="573" width="200" height="30" as="geometry" />
        </mxCell>
        <mxCell id="Xk69e0sRLdtN3S3zNl_H-35" value="+ setCep(cep: String): void" style="text;strokeColor=none;fillColor=none;align=left;verticalAlign=middle;spacingLeft=4;spacingRight=4;overflow=hidden;points=[[0,0.5],[1,0.5]];portConstraint=eastwest;rotatable=0;whiteSpace=wrap;html=1;" vertex="1" parent="Xk69e0sRLdtN3S3zNl_H-1">
          <mxGeometry y="603" width="200" height="30" as="geometry" />
        </mxCell>
        <mxCell id="Xk69e0sRLdtN3S3zNl_H-36" value="+ getCep(): String" style="text;strokeColor=none;fillColor=none;align=left;verticalAlign=middle;spacingLeft=4;spacingRight=4;overflow=hidden;points=[[0,0.5],[1,0.5]];portConstraint=eastwest;rotatable=0;whiteSpace=wrap;html=1;" vertex="1" parent="Xk69e0sRLdtN3S3zNl_H-1">
          <mxGeometry y="633" width="200" height="30" as="geometry" />
        </mxCell>
      </root>
    </mxGraphModel>
  </diagram>
</mxfile>
